<svg width="32" height="32" viewBox="0 0 180 180" fill="none" xmlns="http://www.w3.org/2000/svg">
    <rect width="180" height="180" rx="90" fill="#FFDD2D" style="fill:#e6e6e6" />
    <path d="M 62.96886,66.170895 50.03932,103.03002 c -1.125526,3.13953 -2.01168,5.16745 -2.671472,6.06446 -0.620979,0.897 -1.635533,1.49879 -3.032738,1.81274 v 1.68091 h 11.81722 v -1.68091 c -1.707695,-0.13455 -2.932294,-0.40933 -3.669707,-0.81299 -0.737414,-0.4485 -1.102814,-1.09242 -1.102814,-1.94458 0,-0.76245 0.566723,-2.83251 1.692248,-6.19628 l 0.865139,-2.614754 h 13.100667 c 1.785317,4.754144 2.680979,7.795114 2.680979,9.140624 0,1.34551 -0.932123,2.08469 -2.795062,2.21924 -0.426925,0 -1.04834,0.0742 -1.863375,0.20874 v 1.68091 h 18.861914 v -1.68091 h -0.228166 c -1.125522,0 -2.07588,-0.55965 -2.8521,-1.68091 -0.737417,-1.16611 -1.824894,-3.72162 -3.260909,-7.66846 L 64.59456,66.170895 Z m -2.680977,14.194336 5.875335,16.347655 H 54.811842 Z" style="fill:#ffffff" />
    <path d="m 7.3410761,67.051272 v 1.691895 c 2.0181895,0.134551 3.3704029,0.535741 4.0690059,1.208496 0.698602,0.672755 1.055278,1.855257 1.055278,3.55957 v 32.563477 c 0,1.70432 -0.328938,2.87674 -0.988729,3.50464 -0.62098,0.58306 -2.0009354,1.00531 -4.1355549,1.27441 v 1.68091 H 26.088914 c 4.929027,0 8.885797,-1.14036 11.874262,-3.42773 2.988466,-2.33222 4.477804,-5.40525 4.477804,-9.217534 0,-6.09965 -3.746723,-10.070311 -11.237291,-11.909175 3.376577,-1.121263 5.771084,-2.441156 7.168288,-3.966068 1.397206,-1.569763 2.091544,-3.639819 2.091544,-6.196289 0,-3.453477 -1.315753,-6.093264 -3.954918,-7.932129 -2.600353,-1.883715 -6.328846,-2.834473 -11.18025,-2.834473 z m 17.5784749,2.021485 c 2.018185,0 3.51703,0.739176 4.487312,2.219238 0.97028,1.480062 1.454572,3.813916 1.454572,6.998291 0,3.543178 -0.621414,5.940235 -1.863374,7.196045 -1.241961,1.210959 -3.654697,1.86587 -7.225333,1.95557 V 72.368655 c 0,-1.21096 0.237785,-2.066461 0.703521,-2.559814 0.504545,-0.493355 1.317777,-0.736084 2.443302,-0.736084 z m -3.146823,20.390624 h 1.749292 c 5.93812,0 8.908073,3.674815 8.908073,11.030279 0,6.593 -2.366769,9.88769 -7.10174,9.88769 -1.280771,0 -2.194663,-0.31692 -2.73802,-0.94482 -0.543358,-0.62791 -0.817605,-1.684 -0.817605,-3.16406 z" style="fill:#ffffff" />
    <path d="m 159.05242,70.957898 q 0,-1.278236 -0.98968,-1.614614 -0.93148,-0.403654 -3.95875,-0.605481 v -1.68189 h 16.82468 v 1.68189 q -4.24984,0.403654 -7.39355,2.960127 -3.08549,2.556472 -11.29408,12.311434 l 17.75615,25.430176 q 0.9897,1.34551 2.85264,1.41279 v 1.68189 h -19.56088 v -1.68189 q 0.81504,-0.0673 1.86294,-0.0673 2.73619,-0.20183 2.73619,-1.34551 0,-0.94186 -1.39721,-2.96013 l -10.59547,-15.271555 -1.57185,1.681881 v 13.186024 q 0,2.4892 0.98968,3.43105 0.98969,0.87459 4.1334,1.34552 v 1.68189 h -19.6191 v -1.68189 q 3.1437,-0.40366 4.07518,-1.27824 0.98969,-0.94186 0.98969,-3.49833 V 73.514371 q 0,-2.623749 -1.04791,-3.565607 -0.98969,-1.009134 -4.01696,-1.210961 v -1.68189 h 19.67731 v 1.68189 q -3.20192,0.269103 -4.19161,1.480063 -0.98968,1.143686 -0.98968,4.709292 v 14.396983 l 12.63306,-14.666085 q 1.33899,-1.547339 1.68829,-2.220095 0.40752,-0.672756 0.40752,-1.480063 z" style="fill:#ffffff" />
    <path d="m 100.07869,67.055913 20.31769,28.861223 V 75.398087 q 0,-3.565606 -1.10613,-4.911118 -1.10612,-1.412788 -4.30805,-1.749166 v -1.68189 h 12.51663 v 1.68189 q -2.85262,0.538205 -3.72588,1.547339 -0.81503,0.941858 -0.81503,3.834709 v 39.625329 h -1.63008 L 95.304883,77.147253 v 27.044797 q 0,3.5656 1.047904,4.91111 1.106108,1.27824 4.482713,1.74917 v 1.68189 H 87.62025 v -1.68189 q 3.201928,-0.47093 4.133402,-1.48006 0.98968,-1.00914 0.98968,-3.90199 V 73.581646 q -2.095809,-2.89285 -3.085498,-3.834709 -0.98968,-1.009134 -1.862938,-1.009134 v -1.68189 z" style="fill:#ffffff" />
</svg>
