<svg xmlns="http://www.w3.org/2000/svg" width="48" height="48" fill="none"><mask id="a" width="46" height="46" x="1" y="1" maskUnits="userSpaceOnUse" style="mask-type:alpha"><path fill="#fff" d="M1 24C1 14.191 1 9.287 3.592 5.908a12.6 12.6 0 0 1 2.316-2.316C9.287 1 14.191 1 24 1s14.713 0 18.092 2.592c.87.668 1.648 1.446 2.316 2.316C47 9.287 47 14.191 47 24s0 14.713-2.593 18.092a12.5 12.5 0 0 1-2.315 2.316C38.713 47 33.809 47 24 47S9.287 47 5.908 44.407a12.6 12.6 0 0 1-2.316-2.315C1 38.713 1 33.809 1 24"/></mask><g mask="url(#a)"><path fill="url(#b)" d="M1 1h46v46H1z"/><path fill="url(#c)" d="M1 1h46v46H1z"/><path fill="url(#d)" fill-opacity=".6" d="M1 1h46v46H1z"/><mask id="f" width="52" height="40" x="-2" y="10" maskUnits="userSpaceOnUse" style="mask-type:alpha"><path fill="url(#e)" d="M4.055 35.173c-2.277 0-3.155-1.548-5.432-1.548V49.38h50.402V10.525l-5.984 10.509a2 2 0 0 1-.761.762c-1.073.6-3.644 1.964-4.829 1.964-1.518 0-5.313-6.304-6.072-6.304s-3.795 5.744-4.554 6.864-4.554.631-5.313 1.191c-.76.56-3.036 12.534-5.313 12.534s-5.313-9.454-6.831-9.454-3.036 6.582-5.313 6.582"/></mask><g mask="url(#f)"><path fill="url(#g)" d="M4.054 35.173c-2.277 0-3.152-1.548-5.429-1.548v15.747h50.4V10.525L43.04 21.034a2 2 0 0 1-.76.762c-1.073.599-3.645 1.964-4.83 1.964-1.517 0-5.312-6.304-6.071-6.304-.76 0-3.795 5.744-4.554 6.864s-4.555.63-5.313 1.191c-.76.56-3.037 12.533-5.314 12.533s-5.313-9.453-6.83-9.453c-1.519 0-3.037 6.582-5.314 6.582"/></g><circle cx="31.175" cy="16.825" r="25.2" fill="url(#h)" opacity=".5"/><circle cx="31.175" cy="16.825" r="17.85" fill="url(#i)" opacity=".5"/><circle cx="31.175" cy="16.825" r="10.5" fill="url(#j)" opacity=".5"/><path fill="url(#k)" d="M31.38 16.926c.367 0 .643.171.755.245.145.096.277.212.388.319.225.216.473.501.722.804.496.603 1.116 1.425 1.713 2.187.277.354.554.7.822 1.022l-1.582 1.382a47 47 0 0 1-.894-1.11c-.637-.813-1.204-1.568-1.68-2.147q-.116-.14-.217-.256-.05.064-.103.136c-.375.518-.83 1.239-1.302 2.022-.469.778-.938 1.592-1.343 2.292-.393.678-.748 1.289-.964 1.607-.42.62-1.136.877-1.655 1.008-.568.145-1.214.211-1.79.256-.621.047-1.125.069-1.584.118q-.275.03-.437.064-.037.087-.084.217c-.127.347-.279.834-.456 1.432-.346 1.17-.786 2.76-1.261 4.294-.477 1.539-1.018 3.116-1.6 4.322-.288.599-.613 1.163-.981 1.592-.341.398-.893.883-1.648.883-.647 0-1.18-.33-1.566-.658-.398-.339-.768-.788-1.105-1.263-.675-.952-1.346-2.194-1.96-3.37-.632-1.21-1.2-2.344-1.712-3.194a8 8 0 0 0-.517-.771q-.102.133-.235.342c-.359.566-.73 1.322-1.177 2.184-.424.819-.915 1.725-1.47 2.43-.52.659-1.316 1.428-2.403 1.428-1.404 0-2.387-.493-3.177-.881-.786-.386-1.38-.667-2.252-.667v-2.1c1.405 0 2.387.493 3.178.881.785.386 1.38.666 2.251.667.052 0 .3-.055.753-.629.417-.53.828-1.269 1.257-2.096.407-.783.843-1.673 1.267-2.34.213-.337.46-.68.746-.95.274-.257.712-.567 1.291-.567l.134.006c.307.029.56.152.74.27.21.137.391.31.542.477.3.334.593.771.87 1.232.556.922 1.173 2.152 1.776 3.306.619 1.186 1.229 2.308 1.81 3.128.292.41.545.7.754.878.064.055.116.09.154.114q.041-.038.105-.107c.195-.228.428-.604.684-1.136.51-1.056 1.013-2.508 1.485-4.032.473-1.528.888-3.037 1.253-4.27.179-.602.347-1.143.499-1.557.075-.206.154-.405.239-.573.041-.085.093-.18.155-.272.055-.081.16-.22.32-.339l.102-.07c.24-.15.501-.226.694-.272.241-.058.505-.095.76-.122.49-.052 1.126-.083 1.643-.123.563-.043 1.055-.1 1.436-.197.43-.11.473-.21.433-.15.163-.242.473-.77.886-1.483.401-.693.88-1.526 1.36-2.323.478-.793.971-1.578 1.402-2.172.213-.293.433-.571.645-.786.105-.107.235-.225.384-.323a1.36 1.36 0 0 1 .746-.24"/><path fill="url(#l)" d="M36.834 22.673q.326.32.547.47c.065.046.112.068.138.08.143-.011.379-.057.713-.165.191-.062.397-.14.61-.225l.77 1.956c-.248.098-.495.19-.734.267-.455.147-.963.274-1.427.274-.516 0-.962-.25-1.26-.456a7 7 0 0 1-.942-.816z"/><path fill="url(#m)" d="m44.247 21.558-.294.515c-.27.476-.667.882-1.161 1.159-.411.23-1.043.572-1.74.913l-.773-1.963c.589-.291 1.125-.58 1.488-.783a.96.96 0 0 0 .361-.365l.33-.579z"/><path fill="url(#n)" d="m46.731 17.195-1.705 2.993-1.79-1.103 1.706-2.993z"/><path fill="url(#o)" d="m49.938 11.565-2.427 4.26-1.79-1.103 2.391-4.197z"/><path fill="#fff" d="M36.425 16.825a5.25 5.25 0 1 1-10.5 0 5.25 5.25 0 0 1 10.5 0"/><path fill="url(#p)" d="M34.325 16.825a3.15 3.15 0 1 1-6.3 0 3.15 3.15 0 0 1 6.3 0"/></g><defs><radialGradient id="c" cx="0" cy="0" r="1" gradientTransform="rotate(89.349 14.892 16.074)scale(46.003)" gradientUnits="userSpaceOnUse"><stop offset=".338" stop-color="#00ce52"/><stop offset="1" stop-color="#ecfdf3" stop-opacity="0"/></radialGradient><radialGradient id="d" cx="0" cy="0" r="1" gradientTransform="rotate(132.098 20.452 11.235)scale(30.4831)" gradientUnits="userSpaceOnUse"><stop stop-color="#00ff6a"/><stop offset="1" stop-color="#00ff5e" stop-opacity="0"/></radialGradient><radialGradient id="e" cx="0" cy="0" r="1" gradientTransform="rotate(90.535 6.986 23.723)scale(30.6131 66.744)" gradientUnits="userSpaceOnUse"><stop offset=".29" stop-opacity=".1"/><stop offset=".521"/></radialGradient><radialGradient id="h" cx="0" cy="0" r="1" gradientTransform="translate(31.175 16.825)scale(-25.2)" gradientUnits="userSpaceOnUse"><stop offset=".3" stop-color="#fff" stop-opacity=".3"/><stop offset="1" stop-color="#fff"/></radialGradient><radialGradient id="i" cx="0" cy="0" r="1" gradientTransform="translate(31.175 16.825)scale(-17.85)" gradientUnits="userSpaceOnUse"><stop offset=".3" stop-color="#fff" stop-opacity=".3"/><stop offset="1" stop-color="#fff"/></radialGradient><radialGradient id="j" cx="0" cy="0" r="1" gradientTransform="translate(31.175 16.825)scale(-10.5)" gradientUnits="userSpaceOnUse"><stop offset=".3" stop-color="#fff" stop-opacity=".3"/><stop offset="1" stop-color="#fff"/></radialGradient><radialGradient id="p" cx="0" cy="0" r="1" gradientTransform="rotate(90 7.175 24)scale(3.15)" gradientUnits="userSpaceOnUse"><stop offset=".394" stop-color="#ff4c80"/><stop offset="1" stop-color="#ed0057"/></radialGradient><linearGradient id="b" x1="24" x2="24" y1="1" y2="47" gradientUnits="userSpaceOnUse"><stop stop-color="#00d656"/><stop offset="1" stop-color="#fff"/></linearGradient><linearGradient id="g" x1="-48.217" x2="20.634" y1="-27.573" y2="46.977" gradientUnits="userSpaceOnUse"><stop offset=".584" stop-color="#ff124f"/><stop offset="1" stop-color="#88eeb0"/></linearGradient><linearGradient id="k" x1="49.938" x2="-1.375" y1="25.07" y2="25.07" gradientUnits="userSpaceOnUse"><stop offset=".361" stop-color="#00af46"/><stop offset="1" stop-color="#ff0243"/></linearGradient><linearGradient id="l" x1="49.938" x2="-1.375" y1="25.07" y2="25.07" gradientUnits="userSpaceOnUse"><stop offset=".361" stop-color="#00af46"/><stop offset="1" stop-color="#ff0243"/></linearGradient><linearGradient id="m" x1="49.938" x2="-1.375" y1="25.07" y2="25.07" gradientUnits="userSpaceOnUse"><stop offset=".361" stop-color="#00af46"/><stop offset="1" stop-color="#ff0243"/></linearGradient><linearGradient id="n" x1="49.938" x2="-1.375" y1="25.07" y2="25.07" gradientUnits="userSpaceOnUse"><stop offset=".361" stop-color="#00af46"/><stop offset="1" stop-color="#ff0243"/></linearGradient><linearGradient id="o" x1="49.938" x2="-1.375" y1="25.07" y2="25.07" gradientUnits="userSpaceOnUse"><stop offset=".361" stop-color="#00af46"/><stop offset="1" stop-color="#ff0243"/></linearGradient></defs></svg>