<svg xmlns="http://www.w3.org/2000/svg" width="48" height="48" fill="none"><mask id="b" width="46" height="46" x="1" y="1" maskUnits="userSpaceOnUse" style="mask-type:alpha"><path fill="url(#a)" d="M1 24C1 14.191 1 9.287 3.592 5.908a12.6 12.6 0 0 1 2.316-2.316C9.287 1 14.191 1 24 1s14.713 0 18.092 2.592c.87.668 1.648 1.446 2.316 2.316C47 9.287 47 14.191 47 24s0 14.713-2.593 18.092a12.5 12.5 0 0 1-2.315 2.316C38.713 47 33.809 47 24 47S9.287 47 5.908 44.407a12.6 12.6 0 0 1-2.316-2.315C1 38.713 1 33.809 1 24"/></mask><g mask="url(#b)"><path fill="url(#c)" d="M1 24C1 14.191 1 9.287 3.592 5.908a12.6 12.6 0 0 1 2.316-2.316C9.287 1 14.191 1 24 1s14.713 0 18.092 2.592c.87.668 1.648 1.446 2.316 2.316C47 9.287 47 14.191 47 24s0 14.713-2.593 18.092a12.5 12.5 0 0 1-2.315 2.316C38.713 47 33.809 47 24 47S9.287 47 5.908 44.407a12.6 12.6 0 0 1-2.316-2.315C1 38.713 1 33.809 1 24"/><path fill="url(#d)" d="M1 24C1 14.191 1 9.287 3.592 5.908a12.6 12.6 0 0 1 2.316-2.316C9.287 1 14.191 1 24 1s14.713 0 18.092 2.592c.87.668 1.648 1.446 2.316 2.316C47 9.287 47 14.191 47 24s0 14.713-2.593 18.092a12.5 12.5 0 0 1-2.315 2.316C38.713 47 33.809 47 24 47S9.287 47 5.908 44.407a12.6 12.6 0 0 1-2.316-2.315C1 38.713 1 33.809 1 24"/><path fill="url(#e)" d="M1 24C1 14.191 1 9.287 3.592 5.908a12.6 12.6 0 0 1 2.316-2.316C9.287 1 14.191 1 24 1s14.713 0 18.092 2.592c.87.668 1.648 1.446 2.316 2.316C47 9.287 47 14.191 47 24s0 14.713-2.593 18.092a12.5 12.5 0 0 1-2.315 2.316C38.713 47 33.809 47 24 47S9.287 47 5.908 44.407a12.6 12.6 0 0 1-2.316-2.315C1 38.713 1 33.809 1 24"/><path fill="url(#f)" d="M52.975 19c0 12.703-10.298 23-23 23s-23-10.297-23-23 10.297-23 23-23 23 10.297 23 23" opacity=".447"/><path fill="url(#g)" d="M45 18.975c0 8.284-6.716 15-15 15s-15-6.716-15-15c0-8.285 6.716-15 15-15s15 6.715 15 15" opacity=".5"/><path fill="url(#h)" d="M25.509 20.51c-.28.72-.535 1.368-.695 1.71-.312.664-.934 1.003-1.391 1.194-.5.21-1.08.352-1.598.464-.56.119-1.015.2-1.427.302a4 4 0 0 0-.39.115q-.024.09-.052.225c-.076.36-.16.861-.253 1.476-.183 1.202-.404 2.832-.663 4.411-.26 1.584-.574 3.214-.967 4.48-.194.628-.426 1.226-.712 1.695-.265.435-.713.981-1.399 1.07-.588.075-1.11-.19-1.498-.47-.4-.29-.787-.693-1.147-1.126-.72-.866-1.47-2.02-2.161-3.117-.711-1.128-1.355-2.187-1.917-2.971a8 8 0 0 0-.557-.706q-.077.144-.175.368c-.262.604-.514 1.398-.823 2.306-.294.863-.638 1.82-1.063 2.585-.398.715-1.035 1.572-2.023 1.7-1.259.161-2.199-.2-2.955-.491l-.033-.013c-.758-.291-1.33-.5-2.122-.399l-.237-2.085c1.257-.162 2.195.199 2.952.489l.036.014c.757.292 1.33.5 2.122.399.047-.006.266-.09.613-.713.32-.575.61-1.357.907-2.228.282-.825.578-1.76.888-2.472.156-.36.342-.73.571-1.03.22-.288.583-.647 1.11-.715l.122-.01c.283-.007.527.086.703.182.207.111.39.262.547.41.31.297.626.697.93 1.122.61.85 1.309 2 1.987 3.075.696 1.105 1.377 2.148 1.998 2.895.312.372.574.63.784.783q.098.068.153.095.033-.042.084-.118c.151-.25.32-.65.493-1.208.345-1.109.639-2.61.896-4.178.258-1.573.465-3.12.658-4.387.094-.619.186-1.175.278-1.604.045-.214.094-.42.152-.597.028-.09.065-.19.11-.289.042-.086.121-.237.253-.373l.085-.082a2 2 0 0 1 .6-.351c.213-.086.449-.154.678-.21.44-.11 1.014-.215 1.48-.315.506-.108.947-.222 1.283-.363.313-.132.386-.227.385-.219.123-.267.341-.819.63-1.557z"/><path fill="url(#i)" d="m42.247 16.65-.294.559c-.27.516-.667.956-1.16 1.256-.412.25-1.044.62-1.74.99l-.774-2.128a33 33 0 0 0 1.488-.849c.151-.094.276-.23.361-.395l.33-.628z"/><path fill="url(#j)" d="m44.563 10.935-1.22 3.221-1.939-.811 1.22-3.222z"/><path fill="url(#k)" d="m47.938 4.565-2.427 4.26-1.79-1.103 2.39-4.197z"/><path fill="#fff" d="M37.5 18.975a7.5 7.5 0 1 1-15 .05 7.5 7.5 0 0 1 15-.05"/><path fill="url(#l)" d="M34.5 18.985a4.5 4.5 0 1 1-9 .03 4.5 4.5 0 0 1 9-.03"/></g><defs><linearGradient id="a" x1="11.278" x2="36.722" y1="4.839" y2="43.161" gradientUnits="userSpaceOnUse"><stop offset="0" stop-color="#00d656"/><stop offset="1" stop-color="#ffc0c0"/></linearGradient><linearGradient id="c" x1="11.278" x2="36.722" y1="4.839" y2="43.161" gradientUnits="userSpaceOnUse"><stop offset="0" stop-color="#00d656"/><stop offset="1" stop-color="#ffc0c0"/></linearGradient><linearGradient id="h" x1="36.242" x2="-1.36" y1="24.058" y2="29.351" gradientUnits="userSpaceOnUse"><stop offset=".361" stop-color="#00af46"/><stop offset="1" stop-color="#ff0243"/></linearGradient><linearGradient id="i" x1="47.938" x2="-3.375" y1="20.458" y2="20.458" gradientUnits="userSpaceOnUse"><stop offset=".361" stop-color="#00af46"/><stop offset="1" stop-color="#ff0243"/></linearGradient><linearGradient id="j" x1="48.955" x2="-1.735" y1="18.216" y2="26.188" gradientUnits="userSpaceOnUse"><stop offset=".361" stop-color="#00af46"/><stop offset="1" stop-color="#ff0243"/></linearGradient><linearGradient id="k" x1="47.938" x2="-3.375" y1="18.07" y2="18.07" gradientUnits="userSpaceOnUse"><stop offset=".361" stop-color="#00af46"/><stop offset="1" stop-color="#ff0243"/></linearGradient><radialGradient id="d" cx="0" cy="0" r="1" gradientTransform="translate(30.796 1)scale(46.003)" gradientUnits="userSpaceOnUse"><stop offset=".338" stop-color="#00ce52"/><stop offset="1" stop-color="#ecfdf3" stop-opacity="0"/></radialGradient><radialGradient id="e" cx="0" cy="0" r="1" gradientTransform="translate(42.5 3.592)scale(30.4831)" gradientUnits="userSpaceOnUse"><stop offset="0" stop-color="#00ff6a" stop-opacity=".6"/><stop offset="1" stop-color="#00ff5e" stop-opacity="0"/></radialGradient><radialGradient id="f" cx="0" cy="0" r="1" gradientTransform="matrix(23 0 0 23 29.975 19)" gradientUnits="userSpaceOnUse"><stop offset=".3" stop-color="#fff" stop-opacity=".3"/><stop offset="1" stop-color="#fff"/></radialGradient><radialGradient id="g" cx="0" cy="0" r="1" gradientTransform="matrix(15 0 0 15 30 18.975)" gradientUnits="userSpaceOnUse"><stop offset=".3" stop-color="#fff" stop-opacity=".3"/><stop offset="1" stop-color="#fff"/></radialGradient><radialGradient id="l" cx="0" cy="0" r="1" gradientTransform="matrix(4.5 0 0 4.5 30 19)" gradientUnits="userSpaceOnUse"><stop offset=".394" stop-color="#ff4c80"/><stop offset="1" stop-color="#ed0057"/></radialGradient></defs></svg>